<?xml version="1.0" encoding="UTF-8"?>
<svg id="Layer_2" data-name="Layer 2" xmlns="http://www.w3.org/2000/svg" viewBox="0 0 586.73 382.89">
  <defs>
    <style>
      .cls-1 {
        fill: #fff;
      }

      .cls-1, .cls-2 {
        stroke-width: 0px;
      }

      .cls-2 {
        fill: #052945;
      }
    </style>
  </defs>
  <g id="Layer_1-2" data-name="Layer 1">
    <g>
      <g>
        <g>
          <rect class="cls-2" x="17.67" y="0" width="22.67" height="99.89"/>
          <path class="cls-2" d="M219.88,107.23c0,20.59-4.6,38.83-13.79,54.71-5.99-.61-6.95,2.86-14.77-2.58-2.38-1.29-4.72-2.67-7.04-4.07.55-.85,1.07-1.7,1.59-2.57,3.07-5.2,5.53-10.72,7.38-16.55,1.75-5.48,2.96-11.23,3.63-17.26.43-3.79.64-7.68.64-11.69,0-17.36-3.88-32.58-11.64-45.65-4.74-7.99-10.65-14.93-17.73-20.82,2.83-2.47,3.91-6.92,2.02-10.28-2.49-4.96-9.74-5.9-13.39-1.73-.88.83-1.44,1.86-1.86,2.95-.55-.31-1.11-.62-1.67-.92-6.97-3.71-14.57-6.51-22.79-8.37-2.69-.61-5.45-1.12-8.27-1.53-5.85-.86-11.99-1.28-18.42-1.28h-35.6V0h36.83C111.39,0,117.57.36,123.52,1.07c3.34.4,6.61.91,9.81,1.53,11.51,2.24,22.12,5.92,31.85,11.03,17.26,9.09,30.69,21.7,40.29,37.84,9.6,16.14,14.4,34.72,14.4,55.76Z"/>
          <path class="cls-2" d="M168.14,40.76c-4.03-3.36-8.44-6.38-13.23-9.06.41-1.09.97-2.12,1.86-2.95,3.65-4.18,10.9-3.24,13.39,1.73,1.89,3.36.81,7.81-2.02,10.28Z"/>
          <path class="cls-2" d="M206.09,161.95c-.2.35-.41.7-.61,1.05-2.9,4.87-6.14,9.42-9.74,13.65-8.31,9.78-18.5,17.85-30.54,24.19-17.26,9.09-37.33,13.63-60.2,13.63H17.67v-28.79h22.67v9.18h63.42c19,0,35.49-3.73,49.48-11.18,3.87-2.06,7.51-4.35,10.9-6.85,2.85-2.1,5.53-4.35,8.05-6.77,2.6-2.49,5.02-5.14,7.25-7.96,1.72-2.17,3.34-4.43,4.84-6.79,2.32,1.4,4.66,2.78,7.04,4.07,7.82,5.44,8.77,1.97,14.77,2.58Z"/>
        </g>
        <g>
          <path class="cls-1" d="M133.34,2.6c-3.2-.62-6.48-1.13-9.81-1.53,1.4-.79,3.01-1.2,4.68-1.03,2.09.19,3.84,1.16,5.13,2.56Z"/>
          <path class="cls-1" d="M212.8,179.26l-.03.05c-4.12,5.53-11.91,4.93-15.77-.58-.52-.71-.93-1.4-1.26-2.08-1.66-3.35-1.7-6.38-6.22-8.63-3.36-1.94-6.72-3.93-10.07-5.92-3.35-1.99-6.71-3.99-10.06-5.95-4.6-2.25-9.08-4.54-13.45-7.23-5.1-2.69-9.4-6.51-14.55-9.15-4.14-2.94-7.59-3.54-13.28-7.32,0,0,0,0,0,0-.67-.36-1.49-.25-2.03.28-4.32,4.21-10.23,6.8-16.74,6.8s-12.46-2.61-16.79-6.84c-1.35-1.32-3.44-1.51-4.99-.41l-.03.02c-8.9,5.92-13.59,12.27-17.83,22-1.73,4.62-2.39,9.72-3.41,14.57-1.04,4.05,1.79,7.03,2.63,10.7.63,3.49-.62,7.42-3.76,9.24-6.08,3.56-13.77-.91-13.15-8.15.24-7.18,7.22-6.9,7.96-14.71,1.07-5.42,2.25-10.95,3.8-16.22.16-.99,1.11-3.06-.18-3.43-.76-.15-2.29.69-3.16,1.17-2.96,1.65-5.87,3.46-8.81,5.22-1.55.9-3.1,1.8-4.64,2.71-4.74,2.79-9.45,5.63-14.18,8.44-1.95,1.26-3.7,2.71-5.58,3.94-1.39.92-3.1,1.57-4.31,2.54-2.23,1.66-2.52,4.73-3.75,7.06-.69,1.31-1.7,2.4-2.89,3.22-2.54,1.76-5.94,2.34-8.93,1.46-10.13-2.94-9.64-17.65.67-19.94,2.72-.63,5.54.23,8.26-.08.16-.02.32-.04.48-.07,3.08-.55,5.83-2.21,8.58-3.66,3.31-1.87,6.66-3.73,9.95-5.66,3.89-2.33,7.79-4.65,11.69-6.96,2.54-1.5,5.08-3,7.61-4.5,1.52-1.06,7.02-4.16,7.15-5.86-.12-.77-1.7-.99-2.52-1.24-2.4-.52-4.86-1.22-7.21-2.02-1.7-.51-3.37-1.12-5.03-1.76-4.55-1.76-9.02-3.81-13.71-5.06-5.67-.84-11.44,3.34-15.65-2.7-4.48-7.08,2.99-16.69,10.91-12.89,4.85,2.46,4.36,7.55,10.56,9.29,2.6.97,5.23,2.05,7.89,3.1,8.89,3.49,18.12,6.57,27.56,3.56,2.75-.82,5.8-1.31,8.56-2.31,1.75-.63,2.76-2.43,2.48-4.26-.23-1.59-.32-3.23-.23-4.9.67-12.3,10.71-22.18,23.02-22.66,1.23-.05,2.44,0,3.62.13,3.28.36,6.5-1.08,8.39-3.78,3.85-5.49,7.5-11.17,9.96-17.37,2.97-9.83-2.31-19.45-4.9-28.76-.8-2.88-1.57-5.67-2.24-8.66-.68-3.25-1.04-6.58-1.03-9.9,0-.75.02-1.52,0-2.28,2.83.41,5.58.92,8.27,1.53-.04,1.44.12,3.18.34,5.61.4,3.69.54,7.34,1.53,10.9,1.03,3.59,2.42,7.09,3.63,10.64.57,1.45,1.37,4.4,3.39,3.21,1.05-.62,1.97-1.9,2.79-2.87,2.11-2.6,4.42-4.99,6.78-7.34,1.96-1.96,4.09-3.96,4.83-6.71.38-1.34.66-2.8,1.17-4.15.41-1.09.97-2.12,1.86-2.95,3.65-4.18,10.9-3.24,13.39,1.73,1.89,3.36.81,7.81-2.02,10.28-.77.67-1.66,1.2-2.66,1.52-2.64.83-5.67.3-8.09,1.81-3.75,2.44-6.09,6.37-8.81,9.8-4.92,5.89-7.35,13.17-9.9,20.29-1.62,3.61-3.28,7.1-5,10.66-1.53,2.58-3.41,4.92-5,7.44-.28.52-.6,1.04-.95,1.56-1.37,2.05-1.2,4.73.34,6.65,3.31,4.11,5.28,9.34,5.28,15.02,0,1.63-.16,3.22-.47,4.75-.45,2.24.52,4.53,2.41,5.81,1.19.8,2.39,1.57,3.64,2.28,4.46,2.51,8.61,5.59,13.55,6.99,2.28.54,4.65.64,6.99.79,2.31.18,4.28.31,6.45-.21,3.88-.86,7.65-2.33,11.29-3.94,3.33-1.68,7.36-2.63,9.7-5.74,1.31-1.73,2.14-3.94,3.85-5.37,1.69-1.56,3.93-2.16,6.11-1.94-.67,6.03-1.88,11.78-3.63,17.26-.14-.04-.28-.08-.42-.12-3.71-1.44-7.16-.51-10.59,1.15-3.77,1.52-7.63,3.3-11.38,4.59-7.95,1.94-2.54,3.77,1.34,6.21,4.09,2.33,8.06,4.86,12.08,7.29,2.32,1.4,4.66,2.78,7.04,4.07,7.82,5.44,8.77,1.97,14.77,2.58.55.05,1.13.14,1.77.27,7.16,1.91,9.53,11.5,4.94,17.04Z"/>
        </g>
      </g>
      <g>
        <circle class="cls-2" cx="578.97" cy="352.09" r="7.76"/>
        <g>
          <path class="cls-2" d="M53.11,360.79c-9.02,0-16.94-1.9-23.75-5.69-6.82-3.79-12.15-9.02-16-15.67-3.85-6.65-5.77-14.27-5.77-22.85s1.84-16.17,5.53-22.76c3.68-6.6,8.74-11.79,15.18-15.59,6.43-3.79,13.66-5.69,21.69-5.69s15.37,1.84,21.69,5.53c6.32,3.69,11.3,8.85,14.93,15.5,3.63,6.66,5.44,14.33,5.44,23.01,0,.55-.03,1.13-.08,1.73-.06.61-.08,1.24-.08,1.9H16.49v-8.74h69.11l-4.62,3.46c0-6.27-1.35-11.85-4.04-16.74-2.7-4.89-6.35-8.71-10.97-11.46-4.62-2.75-9.95-4.12-16-4.12s-11.27,1.38-16,4.12c-4.73,2.75-8.41,6.6-11.05,11.54-2.64,4.95-3.96,10.61-3.96,16.99v1.81c0,6.6,1.46,12.4,4.37,17.4,2.91,5.01,6.98,8.91,12.21,11.71,5.22,2.8,11.19,4.21,17.9,4.21,5.28,0,10.2-.93,14.76-2.8,4.56-1.87,8.49-4.73,11.79-8.58l6.6,7.59c-3.85,4.62-8.66,8.14-14.43,10.56-5.77,2.42-12.12,3.63-19.05,3.63Z"/>
          <path class="cls-2" d="M115.96,359.96v-86.6h11.22v23.75l-1.81-4.45c2.75-6.27,7.15-11.19,13.2-14.76,6.05-3.57,13.25-5.36,21.61-5.36,7.04,0,13.22,1.35,18.56,4.04,5.33,2.7,9.51,6.79,12.54,12.29,3.02,5.5,4.54,12.43,4.54,20.79v50.31h-11.71v-49.15c0-9.13-2.28-16.03-6.85-20.7-4.56-4.67-10.97-7.01-19.22-7.01-6.16,0-11.52,1.24-16.08,3.71-4.56,2.47-8.08,6.05-10.56,10.72-2.47,4.68-3.71,10.31-3.71,16.91v45.53h-11.71Z"/>
          <path class="cls-2" d="M261.94,360.79c-8.25,0-15.64-1.87-22.19-5.61-6.54-3.74-11.69-8.93-15.42-15.59-3.74-6.65-5.61-14.32-5.61-23.01s1.87-16.5,5.61-23.09c3.74-6.6,8.88-11.74,15.42-15.42,6.54-3.68,13.94-5.53,22.19-5.53,7.59,0,14.38,1.71,20.37,5.11,5.99,3.41,10.78,8.39,14.35,14.93,3.57,6.54,5.36,14.54,5.36,24s-1.76,17.32-5.28,23.92c-3.52,6.6-8.28,11.63-14.27,15.09-6,3.46-12.84,5.2-20.54,5.2ZM262.76,350.4c6.16,0,11.68-1.4,16.58-4.21,4.89-2.8,8.74-6.76,11.55-11.88,2.8-5.11,4.21-11.02,4.21-17.73s-1.4-12.76-4.21-17.81c-2.8-5.06-6.65-8.99-11.55-11.79-4.89-2.8-10.42-4.21-16.58-4.21s-11.49,1.4-16.33,4.21c-4.84,2.8-8.69,6.74-11.55,11.79-2.86,5.06-4.29,11-4.29,17.81s1.43,12.62,4.29,17.73c2.86,5.11,6.71,9.07,11.55,11.88,4.84,2.8,10.28,4.21,16.33,4.21ZM295.42,359.96v-26.06l1.16-17.48-1.65-17.48v-61.36h11.71v122.39h-11.22Z"/>
          <path class="cls-2" d="M339.3,359.96v-86.6h11.22v23.59l-1.16-4.12c2.42-6.6,6.49-11.63,12.21-15.09,5.72-3.46,12.81-5.2,21.28-5.2v11.38c-.44,0-.88-.03-1.32-.08-.44-.05-.88-.08-1.32-.08-9.13,0-16.28,2.78-21.44,8.33-5.17,5.55-7.75,13.44-7.75,23.67v44.21h-11.71Z"/>
          <path class="cls-2" d="M405.44,359.96v-115.46h12.21v115.46h-12.21Z"/>
          <path class="cls-2" d="M505.73,360.95c-8.69,0-16.74-1.46-24.17-4.37-7.42-2.91-13.86-7.04-19.3-12.37-5.44-5.33-9.68-11.55-12.7-18.64-3.03-7.09-4.54-14.87-4.54-23.34s1.51-16.25,4.54-23.34c3.02-7.09,7.26-13.3,12.7-18.64s11.85-9.46,19.22-12.37c7.37-2.91,15.45-4.37,24.25-4.37s16.71,1.46,24.08,4.37c7.37,2.91,13.77,7.01,19.22,12.29,5.44,5.28,9.68,11.49,12.7,18.64,3.02,7.15,4.54,14.96,4.54,23.42s-1.51,16.28-4.54,23.42c-3.03,7.15-7.26,13.36-12.7,18.64-5.44,5.28-11.85,9.38-19.22,12.29-7.37,2.91-15.4,4.37-24.08,4.37ZM505.73,350.07c6.93,0,13.33-1.18,19.22-3.55,5.88-2.36,11-5.74,15.34-10.14,4.34-4.4,7.72-9.48,10.14-15.26,2.42-5.77,3.63-12.07,3.63-18.89s-1.21-13.28-3.63-19.05c-2.42-5.77-5.8-10.83-10.14-15.18-4.35-4.34-9.46-7.7-15.34-10.06-5.88-2.36-12.29-3.54-19.22-3.54s-13.36,1.18-19.3,3.54c-5.94,2.37-11.08,5.72-15.42,10.06-4.34,4.35-7.75,9.4-10.23,15.18s-3.71,12.12-3.71,19.05,1.24,13.11,3.71,18.89,5.88,10.86,10.23,15.26c4.34,4.4,9.49,7.78,15.42,10.14,5.94,2.37,12.37,3.55,19.3,3.55ZM543.5,382.89c-3.52,0-6.93-.44-10.23-1.32-3.3-.88-6.63-2.28-9.98-4.21-3.36-1.93-6.79-4.43-10.31-7.5-3.52-3.08-7.37-6.82-11.55-11.22l13.36-3.3c3.41,4.07,6.73,7.42,9.98,10.06,3.24,2.64,6.43,4.59,9.57,5.86,3.13,1.26,6.24,1.9,9.32,1.9,8.58,0,15.89-3.52,21.94-10.56l5.94,7.09c-7.26,8.8-16.61,13.2-28.04,13.2Z"/>
        </g>
      </g>
    </g>
  </g>
</svg>